<?xml version="1.0" encoding="utf-8"?><svg xmlns="http://www.w3.org/2000/svg" xmlns:xlink="http://www.w3.org/1999/xlink"><symbol viewBox="0 0 64 64" id="bell" xmlns="http://www.w3.org/2000/svg"><g fill="none"><path fill="#DCDCDC" d="M32 64c17.673 0 32-14.327 32-32C64 14.327 49.673 0 32 0 14.327 0 0 14.327 0 32c0 17.673 14.327 32 32 32zm0-1.362C15.079 62.638 1.362 48.921 1.362 32S15.079 1.362 32 1.362 62.638 15.079 62.638 32 48.921 62.638 32 62.638z"/><path fill="#FF5252" d="M36.085 44.89c-.478 2.27-1.812 3.404-4.002 3.404-2.19 0-3.58-1.135-4.168-3.404h8.17zm-4.427-26.553c4.955 0 8.254 2.59 9.778 7.64l.095.326.025.09v9.884l4.086 5.265v2.644h-27.94v-2.652l4.26-5.265v-9.867l.02-.082c1.34-5.274 4.61-7.983 9.676-7.983zm0 1.361c-4.3 0-7.009 2.144-8.25 6.563l-.084.312v10.178l-4.26 5.265v.808H44.28v-.816l-4.085-5.265v-10.16c-1.33-4.635-4.134-6.885-8.537-6.885zM32 16.34c1.23 0 1.936.636 2.12 1.907h-4.254c.193-1.271.904-1.907 2.134-1.907z"/></g></symbol><symbol viewBox="0 0 19 36" id="chevron_left" xmlns="http://www.w3.org/2000/svg"><path fill="none" stroke="#FFF" stroke-width="4" d="M16.642 2l-14 16.09 14 15.91"/></symbol><symbol viewBox="0 0 19 36" id="chevron_right" xmlns="http://www.w3.org/2000/svg"><path fill="none" stroke="#FFF" stroke-width="4" d="M1.642 2l14 16.09-14 15.91"/></symbol><symbol viewBox="0 0 64 64" id="drops" xmlns="http://www.w3.org/2000/svg"><g fill="none"><path fill="#DCDCDC" d="M32 64c17.673 0 32-14.327 32-32C64 14.327 49.673 0 32 0 14.327 0 0 14.327 0 32c0 17.673 14.327 32 32 32zm0-1.362C15.079 62.638 1.362 48.921 1.362 32S15.079 1.362 32 1.362 62.638 15.079 62.638 32 48.921 62.638 32 62.638z"/><path fill="#FF5252" d="M31.66 16.34c8.514 0 15.475 6.651 15.971 15.041l3.308-4.013 1.05.867-4.973 6.031-5.73-5.994.984-.941 4.005 4.189c-.426-7.703-6.806-13.818-14.615-13.818-8.085 0-14.639 6.554-14.639 14.638 0 8.085 6.554 14.639 14.639 14.639 3.758 0 7.29-1.422 9.977-3.927l.285-.273.955.971a15.948 15.948 0 01-11.217 4.59c-8.837 0-16-7.163-16-16 0-8.836 7.163-16 16-16zm-3.405 9.378l.576.909c3.022 4.775 4.53 7.99 4.53 9.799a5.106 5.106 0 11-10.212 0c0-1.757 1.423-4.842 4.276-9.394l.255-.405.575-.909zm0 2.557c-2.494 4.042-3.744 6.8-3.744 8.15a3.745 3.745 0 107.489 0c0-1.35-1.25-4.108-3.745-8.15zm6.157-5.673l.546.864c3.023 4.774 4.531 7.99 4.531 9.798 0 2.773-2.031 4.996-4.718 5.11l-.22.006v-1.362c2.026 0 3.577-1.642 3.577-3.754 0-1.355-1.26-4.13-3.775-8.198l-.042.062-.657.952-.236.34c-.493.711-.89 1.27-1.25 1.76l-.153.205-1.091-.815a68.19 68.19 0 001.61-2.265l.656-.95c.206-.3.371-.538.523-.756l.112-.16.587-.837z"/></g></symbol><symbol viewBox="0 0 64 64" id="files" xmlns="http://www.w3.org/2000/svg"><g fill="none"><path fill="#DCDCDC" d="M32 64c17.673 0 32-14.327 32-32C64 14.327 49.673 0 32 0 14.327 0 0 14.327 0 32c0 17.673 14.327 32 32 32zm0-1.362C15.079 62.638 1.362 48.921 1.362 32S15.079 1.362 32 1.362 62.638 15.079 62.638 32 48.921 62.638 32 62.638z"/><g fill="#FF5252"><path d="M22.873 18H46v23.695C46 44.643 44.882 46 42.551 46H18V26.018h3.855v13.7h1.018V18zM17 25.018V47h25.538C45.481 47 47 45.154 47 41.695V17H21.867v8.018H17z"/><path d="M27.469 32.969A.469.469 0 0127 32.5c0-4.135 3.365-7.5 7.5-7.5 2.003 0 3.887.78 5.303 2.197a.468.468 0 11-.663.663 6.516 6.516 0 00-4.64-1.922 6.57 6.57 0 00-6.563 6.562c0 .259-.21.469-.468.469z"/><path d="M39.89 28.75h-2.578a.469.469 0 110-.938h2.344V25.47a.469.469 0 11.938 0v2.576a.705.705 0 01-.705.705zM34.5 40a7.448 7.448 0 01-5.303-2.197.468.468 0 11.663-.663 6.517 6.517 0 004.64 1.922 6.57 6.57 0 006.563-6.562.469.469 0 11.937 0c0 4.135-3.365 7.5-7.5 7.5z"/><path d="M28.875 40a.469.469 0 01-.469-.469v-2.576c0-.39.316-.705.705-.705h2.576a.469.469 0 110 .938h-2.343v2.343c0 .26-.21.469-.469.469z"/></g></g></symbol><symbol viewBox="0 0 64 64" id="floppy_disk" xmlns="http://www.w3.org/2000/svg"><defs><path id="fa" d="M0 0h36v36H0z"/></defs><g fill="none" fill-rule="evenodd"><path fill="#DCDCDC" fill-rule="nonzero" d="M32 64c17.673 0 32-14.327 32-32C64 14.327 49.673 0 32 0 14.327 0 0 14.327 0 32c0 17.673 14.327 32 32 32zm0-1.362C15.079 62.638 1.362 48.921 1.362 32S15.079 1.362 32 1.362 62.638 15.079 62.638 32 48.921 62.638 32 62.638z"/><path d="M14 14h36v36H14z"/><g transform="translate(14 14)"><mask id="fb" fill="#fff"><use xlink:href="#fa"/></mask><g fill="#FF5252" mask="url(#fb)"><path d="M26.707 3.25a2.43 2.43 0 011.659.688 852.142 852.142 0 013.696 3.696 2.41 2.41 0 01.687 1.66c.022 7.028.022 14.057 0 21.085-.011 1.224-1.063 2.355-2.367 2.367-8.254.026-16.507.026-24.761 0-1.228-.011-2.355-1.063-2.367-2.367-.026-8.254-.026-16.507 0-24.761.011-1.234 1.083-2.355 2.367-2.367 7.028-.022 14.057-.022 21.086 0zM5.637 4.479C5.035 4.48 4.487 5 4.48 5.626c-.026 8.25-.078 16.502 0 24.753.009.592.52 1.134 1.148 1.14 8.25.026 16.502.076 24.753 0 .594-.009 1.134-.525 1.14-1.148.022-7.025.066-14.052 0-21.077a1.175 1.175 0 00-.333-.798c-1.226-1.233-2.45-2.471-3.69-3.69a1.176 1.176 0 00-.8-.328c-7.02-.022-14.042 0-21.062 0z"/><path d="M25.125 3.253a.645.645 0 01.557.611c0 1.772.006 3.543 0 5.314-.011 1.236-1.082 2.355-2.367 2.367-3.542.011-7.085.011-10.628 0-1.225-.012-2.362-1.061-2.366-2.381v-5.3a.647.647 0 01.613-.613H25.07l.056.002zM11.548 4.478c0 1.566-.014 3.133 0 4.7.01.595.52 1.134 1.147 1.14 3.54.011 7.08.033 10.62 0 .595-.01 1.138-.525 1.14-1.156V4.478H11.548zM26.26 16.207c1.23.012 2.362 1.065 2.367 2.381v13.545c-.042.26-.18.504-.424.583-.061.02-.127.02-.19.03H7.99c-.127-.02-.258-.042-.361-.117-.155-.112-.222-.3-.253-.496 0-4.52-.015-9.04 0-13.56.012-1.228 1.066-2.353 2.367-2.366a2576.44 2576.44 0 0116.517 0zm-16.5 1.227c-.6.002-1.15.513-1.157 1.148v12.937H27.4c0-4.315.04-8.63 0-12.945a1.18 1.18 0 00-1.148-1.14c-5.497-.018-10.995 0-16.493 0z"/></g></g></g></symbol><symbol viewBox="0 0 64 64" id="graph" xmlns="http://www.w3.org/2000/svg"><g fill="none"><path fill="#DCDCDC" d="M32 64c17.673 0 32-14.327 32-32C64 14.327 49.673 0 32 0 14.327 0 0 14.327 0 32c0 17.673 14.327 32 32 32zm0-1.362C15.079 62.638 1.362 48.921 1.362 32S15.079 1.362 32 1.362 62.638 15.079 62.638 32 48.921 62.638 32 62.638z"/><g fill="#FF5252"><path d="M49.549 26.144c1.677 0 3.037-1.39 3.037-3.106 0-1.715-1.36-3.106-3.037-3.106-1.678 0-3.038 1.39-3.038 3.106 0 1.715 1.36 3.106 3.038 3.106zm0-1.38c-.932 0-1.688-.773-1.688-1.726s.756-1.726 1.688-1.726c.932 0 1.687.773 1.687 1.726s-.755 1.725-1.687 1.725zM38.75 39.948c1.677 0 3.037-1.39 3.037-3.106s-1.36-3.106-3.037-3.106c-1.678 0-3.038 1.39-3.038 3.106 0 1.715 1.36 3.106 3.038 3.106zm0-1.38c-.932 0-1.688-.773-1.688-1.726s.756-1.726 1.688-1.726c.931 0 1.687.773 1.687 1.726s-.756 1.725-1.687 1.725zm-14.174-7.593c1.677 0 3.037-1.39 3.037-3.106 0-1.715-1.36-3.106-3.037-3.106-1.678 0-3.038 1.39-3.038 3.106s1.36 3.106 3.038 3.106zm0-1.38c-.932 0-1.688-.773-1.688-1.726s.756-1.725 1.688-1.725c.931 0 1.687.772 1.687 1.725 0 .953-.756 1.726-1.687 1.726zM14.451 44.78c1.678 0 3.038-1.391 3.038-3.107 0-1.715-1.36-3.106-3.038-3.106-1.677 0-3.037 1.39-3.037 3.106s1.36 3.106 3.037 3.106zm0-1.381c-.932 0-1.687-.773-1.687-1.726s.755-1.725 1.687-1.725 1.688.772 1.688 1.725c0 .953-.756 1.726-1.688 1.726z"/><path d="M47.748 24.484l-8.259 10.749 1.062.852 8.258-10.748zm-25.039 4.152l-7.17 10.805 1.117.775 7.17-10.805zm3.978.017l10.621 6.207-.67 1.198-10.621-6.206z"/></g></g></symbol><symbol viewBox="0 0 1920 922" id="headerWaves" xmlns="http://www.w3.org/2000/svg"><defs><linearGradient id="hb" x1="50%" x2="47.953%" y1="38.644%" y2="86.373%"><stop offset="0%" stop-color="#F26A35"/><stop offset="100%" stop-color="#CA2061"/></linearGradient><linearGradient id="ha" x1="50%" x2="50%" y1="103.135%" y2="0%"><stop offset="0%" stop-color="#EE3048"/><stop offset="100%" stop-color="#F26A35"/></linearGradient></defs><g fill="none" fill-rule="evenodd"><path fill="#FFF" d="M0 0h1920v922H0z"/><path fill="url(#ha)" d="M0 0h1920v915c-129.344-111.148-289.015-166.722-479.013-166.722-284.998 0-690.994 37.447-961.991 37.447-180.665 0-340.33-23.036-478.996-69.108V0z" opacity=".524" style="mix-blend-mode:normal" transform="matrix(-1 0 0 1 1920 0)"/><path fill="url(#hb)" d="M0 0h1921.68c37.754 444.508 37.76 694.66.018 750.456-56.612 83.694-193.985-42.429-478.937-42.429C1157.808 708.027 751.875 867 480.92 867 300.283 867 139.976 814.01 0 708.027V0z" opacity=".524" style="mix-blend-mode:multiply"/></g></symbol><symbol viewBox="0 0 768 582" id="headerWavesSm" xmlns="http://www.w3.org/2000/svg"><defs><linearGradient id="ia" x1="50%" x2="47.953%" y1="25.337%" y2="128.998%"><stop offset="0%" stop-color="#F26A35"/><stop offset="100%" stop-color="#CA2061"/></linearGradient><linearGradient id="ib" x1="50%" x2="50%" y1="103.135%" y2="0%"><stop offset="0%" stop-color="#EE3048"/><stop offset="100%" stop-color="#F26A35"/></linearGradient></defs><g fill="none" fill-rule="evenodd"><path fill="#FFF" d="M0-10h768v592H0z"/><path fill="url(#ia)" d="M0 0h860v604c-57.935-50.088-129.455-75.132-214.558-75.132-127.655 0-309.508 49.735-430.892 49.735-80.923 0-152.44-16.69-214.55-50.072V0z" opacity=".524" style="mix-blend-mode:normal" transform="matrix(-1 0 0 1 808 -10)"/><path fill="url(#ib)" d="M0 3h860.322c16.901 329.583 16.904 511.838.008 546.765-25.345 52.39-86.846-26.56-214.417-26.56S336.609 574 215.304 574C134.434 574 62.667 540.83 0 474.488V3z" opacity=".524" style="mix-blend-mode:multiply" transform="translate(-52 -10)"/></g></symbol><symbol viewBox="0 0 64 64" id="heart" xmlns="http://www.w3.org/2000/svg"><g fill="none"><path fill="#FF5252" d="M32.34 48.34c8.837 0 16-7.163 16-16 0-8.836-7.163-16-16-16-8.836 0-16 7.164-16 16 0 8.837 7.164 16 16 16zm0-1.361c-8.084 0-14.638-6.554-14.638-14.639 0-8.084 6.554-14.638 14.638-14.638 8.085 0 14.639 6.554 14.639 14.638 0 8.085-6.554 14.639-14.639 14.639z"/><path fill="#DCDCDC" d="M32 64c17.673 0 32-14.327 32-32C64 14.327 49.673 0 32 0 14.327 0 0 14.327 0 32c0 17.673 14.327 32 32 32zm0-1.362C15.079 62.638 1.362 48.921 1.362 32S15.079 1.362 32 1.362 62.638 15.079 62.638 32 48.921 62.638 32 62.638z"/><path fill="#FF5252" d="M28.406 25.872c-3.25 0-5.255 4.167-2.807 7.156 1.535 1.874 3.716 4.246 6.544 7.119l.48.488.486-.484c3.21-3.206 5.263-5.6 6.175-7.22.77-1.369 1.176-3.008.994-4.322-.235-1.692-1.403-2.737-3.347-2.737-2.087 0-3.603.643-4.455 1.924-1.199-1.27-2.561-1.924-4.07-1.924zm-1.754 6.293c-1.716-2.096-.352-4.931 1.754-4.931 1.342 0 2.558.715 3.677 2.209l.778 1.039.412-1.231c.452-1.347 1.613-2.017 3.658-2.017 1.256 0 1.856.536 1.998 1.562.137.989-.198 2.34-.832 3.466-.79 1.404-2.617 3.56-5.466 6.438-2.567-2.625-4.561-4.805-5.979-6.535z"/></g></symbol><symbol viewBox="0 0 90 90" id="lock" xmlns="http://www.w3.org/2000/svg"><g fill="none"><path fill="#DCDCDC" d="M45 90c24.853 0 45-20.147 45-45S69.853 0 45 0 0 20.147 0 45s20.147 45 45 45zm0-1.915C21.205 88.085 1.915 68.795 1.915 45S21.205 1.915 45 1.915 88.085 21.205 88.085 45 68.795 88.085 45 88.085z"/><path fill="#FFF" d="M51.037 22C54.33 22 57 24.786 57 28.222V36h.955C61.293 36 64 38.754 64 42.152v16.696C64 62.246 61.293 65 57.955 65h-25.91C28.707 65 26 62.246 26 58.848V42.152C26 38.754 28.707 36 32.045 36H34v-7.778C34 24.786 36.67 22 39.963 22h11.074zm6.918 15.758L57 37.757V38H34v-.243h-1.955c-2.384 0-4.318 1.968-4.318 4.395v16.696c0 2.427 1.934 4.394 4.318 4.394h25.91c2.384 0 4.318-1.967 4.318-4.394V42.152c0-2.427-1.934-4.394-4.318-4.394zM45 43c2.761 0 5 2.396 5 5.352 0 1.955-.989 3.719-2.535 4.657-.002.155.006.341.03.878.027.598.037.968.03 1.376C47.485 57.54 46.812 59 45 59c-1.81 0-2.49-1.457-2.546-3.744a21.3 21.3 0 01.018-1.378c.02-.538.025-.73.021-.895C40.97 52.038 40 50.288 40 48.352 40 45.396 42.239 43 45 43zm0 1.784c-1.84 0-3.333 1.597-3.333 3.568 0 1.382.74 2.621 1.883 3.213.485.252.58.624.606 1.264.01.26.007.43-.018 1.118-.02.571-.027.904-.018 1.261.036 1.436.302 2.008.88 2.008.574 0 .833-.564.858-1.987.007-.357-.002-.695-.028-1.256-.032-.713-.037-.855-.03-1.112.02-.654.11-1.025.61-1.275 1.164-.583 1.923-1.835 1.923-3.234 0-1.97-1.492-3.568-3.333-3.568zm6.037-21.006H39.963c-2.352 0-4.26 1.99-4.26 4.444V36h19.593v-7.778c0-2.454-1.907-4.444-4.259-4.444z"/></g></symbol><symbol viewBox="0 0 90 90" id="phone" xmlns="http://www.w3.org/2000/svg"><g fill="none"><path fill="#DCDCDC" d="M45 90c24.853 0 45-20.147 45-45S69.853 0 45 0 0 20.147 0 45s20.147 45 45 45zm0-1.915C21.205 88.085 1.915 68.795 1.915 45S21.205 1.915 45 1.915 88.085 21.205 88.085 45 68.795 88.085 45 88.085z"/><path fill="#FFF" d="M55.81 20c2.314 0 4.19 1.897 4.19 4.237v41.526C60 68.103 58.124 70 55.81 70H33.19C30.875 70 29 68.103 29 65.763V24.237C29 21.897 30.876 20 33.19 20h22.62zm0 1.695H33.19c-1.389 0-2.514 1.138-2.514 2.542v41.526c0 1.404 1.125 2.542 2.513 2.542h22.622c1.388 0 2.513-1.138 2.513-2.542V24.237c0-1.404-1.125-2.542-2.513-2.542zM44.5 61a3.5 3.5 0 110 7 3.5 3.5 0 010-7zm0 1.75a1.75 1.75 0 100 3.5 1.75 1.75 0 000-3.5zM52.833 23C55.135 23 57 24.882 57 27.205v28.59C57 58.118 55.135 60 52.833 60H36.167C33.865 60 32 58.118 32 55.795v-28.59C32 24.882 33.865 23 36.167 23h16.666zm0 1.682H36.167c-1.381 0-2.5 1.13-2.5 2.523v28.59c0 1.394 1.119 2.523 2.5 2.523h16.666c1.381 0 2.5-1.13 2.5-2.523v-28.59c0-1.394-1.119-2.523-2.5-2.523z"/></g></symbol><symbol viewBox="0 0 64 64" id="pill" xmlns="http://www.w3.org/2000/svg"><g fill="none"><path fill="#DCDCDC" d="M32 63.97c17.656 0 31.97-14.314 31.97-31.97S49.655.03 32 .03.03 14.345.03 32 14.345 63.97 32 63.97zm0-1.361C15.095 62.609 1.391 48.905 1.391 32S15.095 1.391 32 1.391 62.609 15.095 62.609 32 48.905 62.609 32 62.609z"/><g fill="#FF5252"><path d="M20.524 20.402l7.08 7.866 1.017-.916-7.079-7.866z"/><path d="M24.573 29.013a5.478 5.478 0 100-10.957 5.478 5.478 0 000 10.957zm0-1.37a4.109 4.109 0 110-8.217 4.109 4.109 0 010 8.217zm23.014-5.873a7.19 7.19 0 010 10.17L31.608 47.917A7.19 7.19 0 1121.44 37.75l15.979-15.98a7.19 7.19 0 0110.168 0zm-.968.97a5.82 5.82 0 00-8.232 0L22.408 38.717a5.82 5.82 0 108.232 8.232l15.979-15.98a5.82 5.82 0 000-8.23z"/><path d="M32.002 32.666l4.842 4.842-7.747 7.747a3.424 3.424 0 11-4.842-4.842l7.747-7.747zm0 1.936l-6.779 6.78a2.054 2.054 0 102.905 2.905l6.78-6.78-2.906-2.905z"/></g></g></symbol><symbol viewBox="0 0 90 90" id="ruble" xmlns="http://www.w3.org/2000/svg"><g fill="none"><path fill="#DCDCDC" d="M45 90c24.853 0 45-20.147 45-45S69.853 0 45 0 0 20.147 0 45s20.147 45 45 45zm0-1.915C21.205 88.085 1.915 68.795 1.915 45S21.205 1.915 45 1.915 88.085 21.205 88.085 45 68.795 88.085 45 88.085z"/><path fill="#FFF" d="M51.545 25l.135.011C58.486 26.143 62 30.105 62 36.696c0 6.644-3.593 10.096-10.455 10.096H34.199V52H52v2H34.199v12h-1.688l-.001-12H28v-2h4.51v-5.208H28V45.07h4.51V25h19.035zm-.07 1.723H34.2v18.346h17.346c5.952 0 8.767-2.704 8.767-8.373 0-5.702-2.872-8.96-8.836-9.973z"/></g></symbol><symbol viewBox="0 0 90 90" id="stethoscope" xmlns="http://www.w3.org/2000/svg"><g fill="none"><path fill="#FFF" d="M43.364 24l-.002.522a1.5 1.5 0 11-.337 1.25l-3.441.001c-1.304 1.227-1.946 2.734-1.946 4.575 0 4.79 3.442 16.086 6.14 17.415 1.12.551 2.599.94 4.18 1.162a2.753 2.753 0 012.502-1.561c1.167 0 2.164.705 2.561 1.7 1.786-.161 3.33-.563 4.203-1.214 2.155-1.605 5.74-13.023 5.93-17.538.128-3.058-.461-4.448-1.39-4.535l-.094-.004h-3.695a1.5 1.5 0 11-2.086-1.643l.001-.13h5.78c2.404 0 3.482 2.345 3.313 6.384-.21 4.998-3.932 16.853-6.643 18.872-1.153.859-3.058 1.377-5.208 1.573l-.056.005a2.694 2.694 0 01-1.406 1.577l-.004 8.79C51.283 66.29 48.695 69 44.091 69c-4.575 0-6.752-2.693-6.324-7.622l.027-.287v-5.208c-.415-2.209-1.866-3.249-4.633-3.249-2.69 0-4.37 1.004-5.215 3.09l-.087.228v2.114c1.922.338 3.379 1.967 3.379 3.926 0 2.203-1.844 3.989-4.12 3.989-2.274 0-4.118-1.786-4.118-3.99 0-1.837 1.283-3.384 3.028-3.847v-2.48l.046-.136c1.05-3.08 3.48-4.667 7.087-4.667 3.551 0 5.774 1.555 6.402 4.543l.049.253.013.149v5.331l-.005.092c-.45 4.162.966 5.998 4.471 5.998 3.496 0 5.345-1.851 5.723-5.804l.024-.286v-8.522c-.993-.223-1.78-.967-2.036-1.918-1.82-.248-3.532-.703-4.853-1.354-3.534-1.74-7.141-13.578-7.141-18.995 0-2.35.864-4.34 2.571-5.912l.238-.212.26-.224h4.487zM27.119 59.775c-1.264 0-2.288.993-2.288 2.217 0 1.224 1.024 2.216 2.288 2.216 1.264 0 2.288-.992 2.288-2.216 0-1.224-1.024-2.217-2.288-2.217z"/><path fill="#DCDCDC" d="M45 90c24.853 0 45-20.147 45-45S69.853 0 45 0 0 20.147 0 45s20.147 45 45 45zm0-1.915C21.205 88.085 1.915 68.795 1.915 45S21.205 1.915 45 1.915 88.085 21.205 88.085 45 68.795 88.085 45 88.085z"/></g></symbol><symbol viewBox="0 0 64 64" id="webCam" xmlns="http://www.w3.org/2000/svg"><g fill="none"><path fill="#DCDCDC" d="M32 64c17.673 0 32-14.327 32-32C64 14.327 49.673 0 32 0 14.327 0 0 14.327 0 32c0 17.673 14.327 32 32 32zm0-1.362C15.079 62.638 1.362 48.921 1.362 32S15.079 1.362 32 1.362 62.638 15.079 62.638 32 48.921 62.638 32 62.638z"/><path fill="#FF5252" d="M39.735 22C42.091 22 44 24.052 44 26.583v2.653L50 26v15l-6-3.149v1.566C44 41.948 42.09 44 39.735 44h-20.47C16.909 44 15 41.948 15 39.417V26.583C15 24.052 16.91 22 19.265 22h20.47zm0 1.833h-20.47c-1.413 0-2.56 1.232-2.56 2.75v12.834c0 1.518 1.147 2.75 2.56 2.75h20.47c1.413 0 2.56-1.232 2.56-2.75V26.583c0-1.518-1.147-2.75-2.56-2.75z"/></g></symbol></svg>