<?xml version="1.0" encoding="UTF-8" standalone="no"?>
<svg
   xmlns:dc="http://purl.org/dc/elements/1.1/"
   xmlns:cc="http://creativecommons.org/ns#"
   xmlns:rdf="http://www.w3.org/1999/02/22-rdf-syntax-ns#"
   xmlns:svg="http://www.w3.org/2000/svg"
   xmlns="http://www.w3.org/2000/svg"
   id="svg23"
   version="1.1"
   viewBox="0 0 173.00063 66"
   height="66"
   width="173.00063">
  <metadata
     id="metadata27">
    <rdf:RDF>
      <cc:Work
         rdf:about="">
        <dc:format>image/svg+xml</dc:format>
        <dc:type
           rdf:resource="http://purl.org/dc/dcmitype/StillImage" />
      </cc:Work>
    </rdf:RDF>
  </metadata>
  <defs
     id="defs7">
    <linearGradient
       gradientUnits="userSpaceOnUse"
       x2="56.032619"
       gradientTransform="scale(1.0529588,0.94970481)"
       y2="34.746837"
       y1="34.746837"
       x1="7.5979419"
       id="a">
      <stop
         id="stop2"
         stop-color="#F26A35"
         offset="0%" />
      <stop
         id="stop4"
         stop-color="#EE3048"
         offset="100%" />
    </linearGradient>
  </defs>
  <g
     style="fill:none;fill-rule:nonzero"
     id="g21">
    <g
       style="fill:#ffffff"
       id="g15">
      <path
         id="path9"
         d="m 98.882,12 v 15.088 h -2.89 V 18.41 c 0,-0.2 0.005,-0.418 0.015,-0.652 0,-0.235 0.028,-0.475 0.054,-0.714 L 92.308,24.8 a 1.28,1.28 0 0 1 -0.473,0.548 1.237,1.237 0 0 1 -0.674,0.186 h -0.444 c -0.237,0.005 -0.47,-0.06 -0.674,-0.186 A 1.28,1.28 0 0 1 89.57,24.8 l -3.753,-7.777 c 0.018,0.248 0.035,0.49 0.05,0.728 0.011,0.24 0.018,0.46 0.018,0.659 v 8.678 H 83 V 12 h 2.869 a 0.907,0.907 0 0 1 0.286,0.063 c 0.088,0.035 0.169,0.089 0.236,0.16 0.08,0.09 0.147,0.193 0.199,0.305 l 3.635,7.662 c 0.127,0.253 0.253,0.536 0.37,0.819 0.12,0.283 0.237,0.573 0.346,0.868 0.109,-0.303 0.237,-0.598 0.345,-0.889 0.11,-0.29 0.237,-0.565 0.384,-0.828 l 3.625,-7.622 a 1.24,1.24 0 0 1 0.199,-0.306 0.658,0.658 0 0 1 0.236,-0.159 0.907,0.907 0 0 1 0.286,-0.063 h 0.374 z m 6.447,5.281 a 5.617,5.617 0 0 1 1.995,0.34 4.363,4.363 0 0 1 1.543,0.973 c 0.44,0.436 0.781,0.96 1.002,1.535 0.246,0.65 0.367,1.34 0.357,2.034 0.01,0.7 -0.11,1.394 -0.357,2.05 -0.22,0.58 -0.561,1.109 -1.002,1.55 -0.439,0.431 -0.964,0.765 -1.543,0.98 a 5.981,5.981 0 0 1 -4.001,0 4.445,4.445 0 0 1 -1.559,-0.98 4.327,4.327 0 0 1 -1.011,-1.55 5.594,5.594 0 0 1 -0.357,-2.05 5.51,5.51 0 0 1 0.357,-2.034 4.283,4.283 0 0 1 1.011,-1.535 4.43,4.43 0 0 1 1.559,-0.973 5.672,5.672 0 0 1 2.006,-0.34 z m 0,7.697 c 0.664,0 1.15,-0.23 1.461,-0.692 0.312,-0.463 0.469,-1.163 0.469,-2.105 0,-0.942 -0.157,-1.642 -0.469,-2.1 -0.312,-0.46 -0.798,-0.69 -1.461,-0.69 -0.663,0 -1.176,0.224 -1.493,0.69 -0.317,0.465 -0.473,1.158 -0.473,2.1 0,0.942 0.159,1.642 0.473,2.105 0.315,0.464 0.814,0.692 1.493,0.692 z m 9.29,-2.285 c 0.093,0.797 0.337,1.372 0.734,1.73 0.421,0.367 0.97,0.56 1.533,0.537 0.292,0.005 0.583,-0.035 0.862,-0.119 a 4.56,4.56 0 0 0 0.646,-0.266 l 0.518,-0.266 c 0.154,-0.08 0.325,-0.12 0.498,-0.119 0.205,-0.011 0.4,0.082 0.519,0.246 l 0.836,1.02 c -0.277,0.32 -0.6,0.595 -0.96,0.82 a 4.972,4.972 0 0 1 -1.058,0.496 c -0.354,0.117 -0.718,0.2 -1.087,0.248 a 8.446,8.446 0 0 1 -1.035,0.068 5.47,5.47 0 0 1 -1.9,-0.325 4.369,4.369 0 0 1 -1.549,-0.969 4.56,4.56 0 0 1 -1.05,-1.595 c -0.27,-0.71 -0.4,-1.462 -0.385,-2.22 a 4.968,4.968 0 0 1 0.33,-1.807 4.427,4.427 0 0 1 2.441,-2.515 5.375,5.375 0 0 1 3.732,-0.08 c 0.51,0.183 0.973,0.474 1.359,0.852 0.391,0.39 0.695,0.857 0.89,1.371 0.223,0.588 0.332,1.212 0.321,1.84 a 4.09,4.09 0 0 1 -0.027,0.523 0.834,0.834 0 0 1 -0.104,0.32 0.377,0.377 0 0 1 -0.2,0.165 0.927,0.927 0 0 1 -0.318,0.045 z m 3.623,-1.651 c 0,-0.223 -0.03,-0.445 -0.088,-0.66 a 1.483,1.483 0 0 0 -0.813,-0.982 1.817,1.817 0 0 0 -0.788,-0.155 1.735,1.735 0 0 0 -1.282,0.463 2.401,2.401 0 0 0 -0.614,1.343 l 3.585,-0.01 z" />
      <g
         id="g13">
        <path
           id="path11"
           d="m 83.457,36.96 a 5.38,5.38 0 0 1 1.87,-1.15 6.699,6.699 0 0 1 2.407,-0.423 c 0.67,-0.01 1.34,0.088 1.986,0.29 0.542,0.165 1.054,0.438 1.513,0.806 0.4,0.323 0.728,0.746 0.96,1.237 a 3.79,3.79 0 0 1 0.334,1.598 c 0.005,0.64 -0.125,1.27 -0.379,1.841 a 3.334,3.334 0 0 1 -1.191,1.406 c 0.268,0.159 0.522,0.348 0.758,0.564 0.224,0.202 0.424,0.438 0.594,0.7 0.163,0.251 0.292,0.528 0.383,0.822 0.095,0.3 0.142,0.618 0.14,0.937 a 5.353,5.353 0 0 1 -0.336,1.913 4.414,4.414 0 0 1 -0.977,1.547 4.548,4.548 0 0 1 -1.581,1.039 5.629,5.629 0 0 1 -2.136,0.386 c -0.453,0 -0.904,-0.048 -1.348,-0.141 A 7.48,7.48 0 0 1 83.967,49.317 5.472,5.472 0 0 1 83,48.526 l 0.893,-1.604 a 0.936,0.936 0 0 1 0.28,-0.29 0.672,0.672 0 0 1 0.38,-0.116 c 0.202,0.006 0.398,0.073 0.57,0.193 0.198,0.13 0.423,0.27 0.675,0.426 0.285,0.17 0.582,0.313 0.889,0.426 a 3.83,3.83 0 0 0 2.097,0.086 c 0.241,-0.06 0.468,-0.18 0.666,-0.349 0.183,-0.166 0.327,-0.382 0.416,-0.628 a 2.78,2.78 0 0 0 0.141,-0.945 1.704,1.704 0 0 0 -0.165,-0.77 1.55,1.55 0 0 0 -0.464,-0.564 2.06,2.06 0 0 0 -0.714,-0.34 3.24,3.24 0 0 0 -0.915,-0.1 h -1.907 v -2.658 h 1.65 c 0.75,0 1.306,-0.144 1.67,-0.433 0.36,-0.282 0.566,-0.756 0.545,-1.252 0.01,-0.443 -0.178,-0.862 -0.5,-1.111 -0.334,-0.275 -0.833,-0.41 -1.501,-0.41 a 3.204,3.204 0 0 0 -1.013,0.145 c -0.263,0.088 -0.52,0.2 -0.769,0.332 -0.217,0.12 -0.418,0.23 -0.587,0.329 a 0.941,0.941 0 0 1 -0.469,0.146 0.577,0.577 0 0 1 -0.38,-0.121 1.276,1.276 0 0 1 -0.282,-0.364 z m 22.231,12.19 v 4.933 a 0.949,0.949 0 0 1 -0.217,0.659 0.705,0.705 0 0 1 -0.57,0.257 h -1.76 v -3.538 h -6.25 v 2.662 c 0,0.11 -0.015,0.219 -0.045,0.323 a 0.863,0.863 0 0 1 -0.14,0.282 0.673,0.673 0 0 1 -0.239,0.198 0.762,0.762 0 0 1 -0.343,0.073 h -1.78 v -5.757 h 0.22 c 0.202,0 0.403,-0.025 0.6,-0.076 a 1.23,1.23 0 0 0 0.561,-0.36 2.81,2.81 0 0 0 0.496,-0.833 c 0.187,-0.483 0.33,-0.987 0.425,-1.503 a 25.27,25.27 0 0 0 0.343,-2.374 c 0.1,-0.947 0.18,-2.09 0.238,-3.43 h 6.72 v 8.484 z m -4.433,0.092 V 43.05 h -1.733 c -0.055,0.762 -0.123,1.46 -0.205,2.092 -0.081,0.632 -0.172,1.2 -0.275,1.706 -0.09,0.458 -0.203,0.91 -0.34,1.353 -0.108,0.358 -0.239,0.706 -0.391,1.04 h 2.944 z m 10.881,-8.575 a 5.626,5.626 0 0 1 1.995,0.34 4.363,4.363 0 0 1 1.543,0.973 c 0.44,0.436 0.781,0.96 1.002,1.535 0.246,0.65 0.367,1.34 0.357,2.034 0.01,0.699 -0.111,1.394 -0.357,2.05 -0.22,0.58 -0.562,1.108 -1.002,1.55 -0.439,0.43 -0.965,0.765 -1.543,0.98 a 5.528,5.528 0 0 1 -1.995,0.344 5.594,5.594 0 0 1 -2.009,-0.344 4.454,4.454 0 0 1 -1.556,-0.98 4.327,4.327 0 0 1 -1.011,-1.55 5.539,5.539 0 0 1 -0.358,-2.05 5.463,5.463 0 0 1 0.358,-2.034 4.282,4.282 0 0 1 1.01,-1.535 4.44,4.44 0 0 1 1.557,-0.973 5.693,5.693 0 0 1 2.009,-0.34 z m 0,7.696 c 0.663,0 1.15,-0.23 1.461,-0.69 0.312,-0.464 0.468,-1.164 0.468,-2.106 0,-0.942 -0.156,-1.642 -0.468,-2.101 -0.312,-0.459 -0.798,-0.69 -1.461,-0.69 -0.663,0 -1.179,0.225 -1.493,0.69 -0.315,0.465 -0.473,1.159 -0.473,2.1 0,0.943 0.158,1.643 0.473,2.106 0.314,0.463 0.812,0.691 1.493,0.691 z m 9.302,-6.164 a 5.32,5.32 0 0 1 1.374,-1.102 3.718,3.718 0 0 1 1.833,-0.429 3.06,3.06 0 0 1 1.49,0.373 c 0.468,0.259 0.872,0.626 1.182,1.075 a 5.56,5.56 0 0 1 0.78,1.722 c 0.196,0.753 0.29,1.53 0.28,2.31 a 7.39,7.39 0 0 1 -0.322,2.235 5.723,5.723 0 0 1 -0.903,1.777 4.21,4.21 0 0 1 -1.39,1.178 3.803,3.803 0 0 1 -1.793,0.424 3.392,3.392 0 0 1 -1.351,-0.237 3.702,3.702 0 0 1 -0.993,-0.64 V 55 h -3.079 V 40.877 h 1.909 a 0.728,0.728 0 0 1 0.753,0.538 z m 0.187,6.484 c 0.208,0.242 0.466,0.433 0.755,0.557 0.273,0.11 0.563,0.166 0.855,0.164 0.271,0.003 0.539,-0.057 0.785,-0.174 0.25,-0.13 0.464,-0.324 0.62,-0.565 0.196,-0.307 0.335,-0.65 0.412,-1.009 a 6.581,6.581 0 0 0 0.148,-1.513 7.198,7.198 0 0 0 -0.119,-1.427 3.01,3.01 0 0 0 -0.332,-0.936 1.325,1.325 0 0 0 -0.51,-0.504 1.422,1.422 0 0 0 -0.667,-0.154 2.162,2.162 0 0 0 -1.112,0.252 c -0.32,0.198 -0.603,0.454 -0.835,0.757 z m 13.956,-8.016 a 5.626,5.626 0 0 1 1.995,0.34 4.363,4.363 0 0 1 1.543,0.973 c 0.44,0.436 0.781,0.96 1.002,1.535 0.246,0.65 0.368,1.34 0.357,2.034 0.01,0.699 -0.11,1.394 -0.357,2.05 -0.22,0.58 -0.561,1.108 -1.002,1.55 -0.438,0.43 -0.964,0.765 -1.543,0.98 a 5.528,5.528 0 0 1 -1.995,0.344 5.594,5.594 0 0 1 -2.008,-0.344 4.454,4.454 0 0 1 -1.557,-0.98 4.327,4.327 0 0 1 -1.01,-1.55 5.539,5.539 0 0 1 -0.358,-2.05 5.463,5.463 0 0 1 0.357,-2.034 4.282,4.282 0 0 1 1.011,-1.535 4.44,4.44 0 0 1 1.557,-0.973 5.693,5.693 0 0 1 2.008,-0.34 z m 0,7.696 c 0.664,0 1.15,-0.23 1.461,-0.69 0.313,-0.464 0.469,-1.164 0.469,-2.106 0,-0.942 -0.156,-1.642 -0.469,-2.101 -0.312,-0.459 -0.798,-0.69 -1.46,-0.69 -0.664,0 -1.18,0.225 -1.494,0.69 -0.314,0.465 -0.472,1.159 -0.472,2.1 0,0.943 0.158,1.643 0.472,2.106 0.315,0.463 0.815,0.691 1.493,0.691 z m 11.009,-7.696 a 8.318,8.318 0 0 1 1.843,0.18 c 0.46,0.097 0.898,0.266 1.292,0.5 0.646,0.38 1.029,1.03 1.013,1.72 a 2.553,2.553 0 0 1 -0.09,0.656 1.923,1.923 0 0 1 -0.313,0.643 2.208,2.208 0 0 1 -0.61,0.558 c -0.3,0.185 -0.636,0.321 -0.99,0.401 0.32,0.066 0.632,0.164 0.928,0.293 0.273,0.118 0.523,0.273 0.742,0.46 0.206,0.184 0.37,0.4 0.485,0.64 0.123,0.261 0.182,0.543 0.176,0.826 0.015,0.468 -0.112,0.93 -0.37,1.337 a 2.866,2.866 0 0 1 -0.966,0.91 4.697,4.697 0 0 1 -1.387,0.517 7.62,7.62 0 0 1 -1.595,0.166 h -4.756 v -9.807 h 4.599 z m -1.482,1.833 v 2.164 h 1.387 c 0.364,0.013 0.718,-0.104 0.985,-0.325 0.255,-0.218 0.395,-0.522 0.382,-0.837 a 1.04,1.04 0 0 0 -0.065,-0.36 0.762,0.762 0 0 0 -0.222,-0.32 1.23,1.23 0 0 0 -0.424,-0.23 2.062,2.062 0 0 0 -0.656,-0.09 z m 1.61,6.038 c 0.355,0.017 0.704,-0.09 0.974,-0.298 a 0.99,0.99 0 0 0 0.361,-0.806 c 0,-0.134 -0.017,-0.268 -0.049,-0.399 a 0.696,0.696 0 0 0 -0.191,-0.33 0.95,0.95 0 0 0 -0.408,-0.23 2.36,2.36 0 0 0 -0.688,-0.08 h -1.61 v 2.134 l 1.61,0.009 z m 11.391,-4.398 a 6.887,6.887 0 0 1 1.985,0.25 c 0.495,0.143 0.949,0.38 1.331,0.692 0.336,0.275 0.592,0.617 0.75,0.997 0.159,0.382 0.239,0.786 0.237,1.193 a 2.91,2.91 0 0 1 -0.29,1.3 c -0.19,0.39 -0.477,0.738 -0.84,1.017 a 4.09,4.09 0 0 1 -1.347,0.653 6.37,6.37 0 0 1 -1.803,0.23 h -4.796 v -9.805 h 3.131 v 3.462 z m 0,4.314 c 0.372,0.023 0.737,-0.095 1.004,-0.326 0.235,-0.236 0.357,-0.542 0.342,-0.856 a 1.12,1.12 0 0 0 -0.08,-0.422 0.986,0.986 0 0 0 -0.246,-0.358 1.13,1.13 0 0 0 -0.423,-0.247 1.8,1.8 0 0 0 -0.597,-0.09 h -1.629 v 2.308 l 1.629,-0.01 z m 8.696,-2.374 c 0.093,0.796 0.34,1.37 0.734,1.729 a 2.2,2.2 0 0 0 1.532,0.537 c 0.293,0.005 0.584,-0.035 0.863,-0.119 0.222,-0.071 0.438,-0.16 0.645,-0.266 0.188,-0.099 0.362,-0.186 0.52,-0.266 0.154,-0.08 0.324,-0.12 0.497,-0.119 a 0.603,0.603 0 0 1 0.52,0.246 l 0.836,1.02 a 4.288,4.288 0 0 1 -0.962,0.82 4.87,4.87 0 0 1 -1.058,0.496 c -0.353,0.117 -0.717,0.2 -1.086,0.248 a 8.442,8.442 0 0 1 -1.035,0.068 5.457,5.457 0 0 1 -1.897,-0.325 4.377,4.377 0 0 1 -1.553,-0.969 4.555,4.555 0 0 1 -1.048,-1.595 5.872,5.872 0 0 1 -0.387,-2.22 4.969,4.969 0 0 1 0.33,-1.808 4.424,4.424 0 0 1 2.44,-2.514 5.379,5.379 0 0 1 3.734,-0.081 c 0.51,0.185 0.972,0.475 1.358,0.852 0.392,0.39 0.696,0.858 0.892,1.372 0.221,0.588 0.33,1.212 0.32,1.84 0.001,0.174 -0.008,0.349 -0.028,0.523 a 0.799,0.799 0 0 1 -0.102,0.32 0.386,0.386 0 0 1 -0.199,0.165 0.931,0.931 0 0 1 -0.321,0.045 h -5.545 z m 3.623,-1.652 c 0,-0.223 -0.03,-0.445 -0.089,-0.66 a 1.597,1.597 0 0 0 -0.29,-0.573 1.473,1.473 0 0 0 -0.522,-0.41 1.83,1.83 0 0 0 -0.79,-0.154 1.737,1.737 0 0 0 -1.282,0.463 c -0.34,0.374 -0.553,0.844 -0.611,1.343 l 3.584,-0.01 z" />
      </g>
    </g>
    <rect
       style="fill:#ffffff"
       y="0"
       x="0"
       id="rect17"
       rx="15"
       height="66"
       width="66" />
    <path
       style="fill:url(#a)"
       id="path19"
       d="m 29.529,54.174 c -3.015,-3.29 -0.809,-8.67 3.648,-8.793 h 0.558 c 4.503,0.026 6.813,5.428 3.769,8.752 l -0.158,0.173 a 5.225,5.225 0 0 1 -7.7,0 z M 17.565,40.599 a 285.976,285.976 0 0 0 3.566,4.18 1.582,1.582 0 0 0 2.04,0.308 19.586,19.586 0 0 1 20.761,-0.106 1.585,1.585 0 0 0 2.027,-0.315 378.72,378.72 0 0 0 3.567,-4.187 1.605,1.605 0 0 0 -0.348,-2.367 28.152,28.152 0 0 0 -31.273,0.128 1.6,1.6 0 0 0 -0.34,2.359 z M 10.2,30.906 c 0.792,1.287 1.919,2.846 3.229,4.57 a 1.59,1.59 0 0 0 2.175,0.327 31.448,31.448 0 0 1 35.885,-0.12 c 0.695,0.48 1.642,0.332 2.159,-0.337 a 53.22,53.22 0 0 0 3.219,-4.584 1.602,1.602 0 0 0 -0.461,-2.146 40.014,40.014 0 0 0 -45.77,0.142 1.605,1.605 0 0 0 -0.436,2.148 z M 33.41,14.895 A 5.03,5.03 0 0 1 30.023,13.56 C 26.116,10.012 20.45,8.906 15.528,11.208 10.702,13.464 7.922,18.373 8.002,23.542 a 1.6,1.6 0 0 0 0.836,1.387 1.591,1.591 0 0 0 1.615,-0.057 43.087,43.087 0 0 1 22.935,-6.694 h 0.24 a 43.13,43.13 0 0 1 22.913,6.525 c 0.492,0.32 1.12,0.343 1.633,0.06 C 58.688,24.48 59.004,23.937 59,23.349 59,18.253 56.237,13.435 51.473,11.208 46.551,8.906 40.886,10.005 36.979,13.56 a 5.049,5.049 0 0 1 -3.404,1.335 z" />
  </g>
</svg>
